<svg width="240" height="180" viewBox="0 0 240 180" fill="none" xmlns="http://www.w3.org/2000/svg">
  <path d="M120 160C153.137 160 180 133.137 180 100C180 66.8629 153.137 40 120 40C86.8629 40 60 66.8629 60 100C60 133.137 86.8629 160 120 160Z" fill="#E6F4EF"/>
  <path d="M120 140C142.091 140 160 122.091 160 100C160 77.9086 142.091 60 120 60C97.9086 60 80 77.9086 80 100C80 122.091 97.9086 140 120 140Z" fill="#75CAA9" fill-opacity="0.2"/>
  <path d="M120 120C131.046 120 140 111.046 140 100C140 88.9543 131.046 80 120 80C108.954 80 100 88.9543 100 100C100 111.046 108.954 120 120 120Z" fill="#75CAA9" fill-opacity="0.4"/>
  <path d="M70 40L170 140" stroke="#FF6B6B" stroke-width="8" stroke-linecap="round"/>
  <path d="M170 40L70 140" stroke="#FF6B6B" stroke-width="8" stroke-linecap="round"/>
  <path d="M40 100H20" stroke="#75CAA9" stroke-width="4" stroke-linecap="round"/>
  <path d="M220 100H200" stroke="#75CAA9" stroke-width="4" stroke-linecap="round"/>
  <path d="M120 20V40" stroke="#75CAA9" stroke-width="4" stroke-linecap="round"/>
  <path d="M120 160V180" stroke="#75CAA9" stroke-width="4" stroke-linecap="round"/>
  <path d="M63.4315 43.4315L77.7817 57.7817" stroke="#75CAA9" stroke-width="4" stroke-linecap="round"/>
  <path d="M176.569 156.569L162.218 142.218" stroke="#75CAA9" stroke-width="4" stroke-linecap="round"/>
  <path d="M43.4315 156.569L57.7817 142.218" stroke="#75CAA9" stroke-width="4" stroke-linecap="round"/>
  <path d="M196.569 43.4315L182.218 57.7817" stroke="#75CAA9" stroke-width="4" stroke-linecap="round"/>
</svg> 