<?xml version="1.0" encoding="UTF-8"?>
<svg version="1.1" xmlns="http://www.w3.org/2000/svg" width="200" height="200">
<path d="M0 0 C66 0 132 0 200 0 C200 66 200 132 200 200 C134 200 68 200 0 200 C0 134 0 68 0 0 Z " fill="#0A0A0A" transform="translate(0,0)"/>
<path d="M0 0 C2.76101146 1.82109266 4.52100548 3.04201097 6 6 C6.34444547 11.25279338 6.57741751 14.82634624 3 19 C-0.36284365 21.34616999 -3.0124458 22.26882352 -7.0625 22.0625 C-10.69865817 21.39947692 -12.95132887 19.97524922 -15.15234375 16.87890625 C-16.77681475 13.27812029 -16.77067579 9.8321677 -16 6 C-12.02355245 -0.67475124 -7.42842155 -2.07818936 0 0 Z " fill="#E1E1E1" transform="translate(123,104)"/>
<path d="M0 0 C1.98 0 3.96 0 6 0 C6 3.3 6 6.6 6 10 C7.32 9.34 8.64 8.68 10 8 C16.11273071 8.21448178 16.11273071 8.21448178 18.703125 10.5078125 C20.63453403 14.21937563 20.32055135 17.63564302 20.1875 21.75 C20.16719727 22.93916016 20.16719727 22.93916016 20.14648438 24.15234375 C20.11125223 26.10185564 20.05744821 28.05101626 20 30 C18.02 30 16.04 30 14 30 C13.67 25.05 13.34 20.1 13 15 C11.35 14.67 9.7 14.34 8 14 C6.00383446 15.99616554 6.59016573 19.81701963 6.4375 22.5625 C6.39431641 23.27341797 6.35113281 23.98433594 6.30664062 24.71679688 C6.20028223 26.47761912 6.09961154 28.2387832 6 30 C4.02 30 2.04 30 0 30 C0 20.1 0 10.2 0 0 Z " fill="#55A78F" transform="translate(64,65)"/>
<path d="M0 0 C3.95420173 0.14921516 6.25181614 0.31251536 9.21484375 3.03515625 C11.57705591 6.95839264 11.45792518 9.83811016 11.25 14.3125 C11.23195312 15.05306641 11.21390625 15.79363281 11.1953125 16.55664062 C11.14847337 18.3716571 11.07673789 20.18600166 11 22 C9.02 22 7.04 22 5 22 C4.67 17.05 4.34 12.1 4 7 C2.35 6.67 0.7 6.34 -1 6 C-2.99616554 7.99616554 -2.40983427 11.81701963 -2.5625 14.5625 C-2.60568359 15.27341797 -2.64886719 15.98433594 -2.69335938 16.71679688 C-2.79971777 18.47761912 -2.90038846 20.2387832 -3 22 C-4.98 22 -6.96 22 -9 22 C-9 15.07 -9 8.14 -9 1 C-6.36 1 -3.72 1 -1 1 C-0.67 0.67 -0.34 0.34 0 0 Z " fill="#E0E0E0" transform="translate(141,103)"/>
<path d="M0 0 C1.98 0 3.96 0 6 0 C6.33 4.95 6.66 9.9 7 15 C8.65 15.33 10.3 15.66 12 16 C13.99616554 14.00383446 13.40983427 10.18298037 13.5625 7.4375 C13.60568359 6.72658203 13.64886719 6.01566406 13.69335938 5.28320312 C13.79971777 3.52238088 13.90038846 1.7612168 14 0 C15.98 0 17.96 0 20 0 C20 6.93 20 13.86 20 21 C18.35 21 16.7 21 15 21 C15 20.34 15 19.68 15 19 C14.319375 19.515625 13.63875 20.03125 12.9375 20.5625 C9.08838451 22.44610971 7.07579849 22.207644 3 21 C-0.44059966 16.86337099 -0.36671526 12.82959945 -0.1875 7.6875 C-0.17396484 6.94693359 -0.16042969 6.20636719 -0.14648438 5.44335938 C-0.11135979 3.62858925 -0.05755972 1.81419712 0 0 Z " fill="#5AA791" transform="translate(87,74)"/>
<path d="M0 0 C3.25 0.375 3.25 0.375 5.93359375 2.34765625 C9.0505396 6.42123641 8.83309307 9.2210764 8.5625 14.1875 C8.53994141 14.97576172 8.51738281 15.76402344 8.49414062 16.57617188 C8.43554161 18.50993929 8.34586827 20.44272167 8.25 22.375 C6.6 22.375 4.95 22.375 3.25 22.375 C3.18941406 21.38757813 3.12882813 20.40015625 3.06640625 19.3828125 C2.98261719 18.10148437 2.89882812 16.82015625 2.8125 15.5 C2.69068359 13.58574219 2.69068359 13.58574219 2.56640625 11.6328125 C2.45793973 8.49199848 2.45793973 8.49199848 1.25 6.375 C-0.41611905 6.332279 -2.08382885 6.33436168 -3.75 6.375 C-5.74616554 8.37116554 -5.15983427 12.19201963 -5.3125 14.9375 C-5.35568359 15.64841797 -5.39886719 16.35933594 -5.44335938 17.09179688 C-5.54971777 18.85261912 -5.65038846 20.6137832 -5.75 22.375 C-7.4 22.375 -9.05 22.375 -10.75 22.375 C-10.75 15.445 -10.75 8.515 -10.75 1.375 C-8.41666667 1.375 -6.08333333 1.375 -3.75 1.375 C-2.75 0.375 -2.75 0.375 0 0 Z " fill="#5FC1A4" transform="translate(137.75,72.625)"/>
<path d="M0 0 C2 2.0625 2 2.0625 3 4 C2 5 2 5 -0.28515625 5.09765625 C-1.65994141 5.08025391 -1.65994141 5.08025391 -3.0625 5.0625 C-3.98160156 5.05347656 -4.90070313 5.04445313 -5.84765625 5.03515625 C-6.55792969 5.02355469 -7.26820312 5.01195313 -8 5 C-8.33 5.66 -8.66 6.32 -9 7 C-8.38511719 7.12117188 -7.77023438 7.24234375 -7.13671875 7.3671875 C-5.92435547 7.61855469 -5.92435547 7.61855469 -4.6875 7.875 C-3.88699219 8.03742188 -3.08648437 8.19984375 -2.26171875 8.3671875 C0 9 0 9 3 11 C3.5 14.375 3.5 14.375 3 18 C0.29494 21.19688909 -1.35615434 21.90802205 -5.5 22.5 C-9.5257232 21.92489669 -11.19213248 20.89295441 -14 18 C-14 17.34 -14 16.68 -14 16 C-9.48281619 14.63115642 -6.41225737 15.52924754 -2 17 C-2.33 16.01 -2.66 15.02 -3 14 C-5.03277473 13.04882642 -5.03277473 13.04882642 -7.4375 12.4375 C-11.80269058 11.19730942 -11.80269058 11.19730942 -14 9 C-14.5 6.125 -14.5 6.125 -14 3 C-9.32632196 -1.55683609 -5.97848798 -1.568128 0 0 Z " fill="#EEEEEE" transform="translate(91,104)"/>
<path d="M0 0 C2.9375 2.375 2.9375 2.375 5 5 C5 5.66 5 6.32 5 7 C2.625 7.625 2.625 7.625 0 8 C-0.66 7.34 -1.32 6.68 -2 6 C-5.30683466 6.28983269 -5.30683466 6.28983269 -8 8 C-8.25003964 11.45821402 -8.25003964 11.45821402 -8 15 C-7.34 15.66 -6.68 16.32 -6 17 C-3.38419521 16.6730244 -1.35921863 16.17960932 1 15 C3.125 15.4375 3.125 15.4375 5 16 C3.60478153 19.37177797 2.23717239 21.25017709 -1 23 C-5.24649943 23.54046356 -7.25823192 23.48376179 -10.875 21.125 C-13.96732945 18.03267055 -14.26563558 16.0388689 -14.5 11.75 C-14.4707265 8.56755276 -14.40838824 6.6386368 -12.68359375 3.94140625 C-8.7605726 0.28167511 -5.42254689 -1.10459289 0 0 Z " fill="#5CBCA0" transform="translate(56,73)"/>
<path d="M0 0 C1.98 0 3.96 0 6 0 C7.65 4.29 9.3 8.58 11 13 C11.639375 11.040625 12.27875 9.08125 12.9375 7.0625 C14.875 1.125 14.875 1.125 16 0 C17.66617115 -0.04063832 19.33388095 -0.042721 21 0 C20.26951699 4.68803656 18.63363115 8.90885555 16.9375 13.3125 C16.65583984 14.05306641 16.37417969 14.79363281 16.08398438 15.55664062 C15.39281425 17.37242655 14.69688311 19.18639899 14 21 C11.69 21 9.38 21 7 21 C5.82807565 17.87694627 4.66336124 14.75125261 3.5 11.625 C3.16613281 10.73554687 2.83226562 9.84609375 2.48828125 8.9296875 C2.01455078 7.65351562 2.01455078 7.65351562 1.53125 6.3515625 C1.09135742 5.17327881 1.09135742 5.17327881 0.64257812 3.97119141 C0 2 0 2 0 0 Z " fill="#EEEEEE" transform="translate(43,104)"/>
<path d="M0 0 C0 1.98 0 3.96 0 6 C-1.2065625 6.4640625 -1.2065625 6.4640625 -2.4375 6.9375 C-4.89080405 7.76335345 -4.89080405 7.76335345 -6 9 C-6.23481693 11.18292774 -6.41363323 13.37203174 -6.5625 15.5625 C-6.68818359 17.35880859 -6.68818359 17.35880859 -6.81640625 19.19140625 C-6.87699219 20.11824219 -6.93757813 21.04507813 -7 22 C-8.98 22 -10.96 22 -13 22 C-13 15.07 -13 8.14 -13 1 C-11.35 1 -9.7 1 -8 1 C-7.67 1.66 -7.34 2.32 -7 3 C-6.401875 2.505 -5.80375 2.01 -5.1875 1.5 C-3 0 -3 0 0 0 Z " fill="#67BDA4" transform="translate(124,73)"/>
<path d="M0 0 C1.65 0 3.3 0 5 0 C5.02698189 1.62490954 5.04638757 3.24994633 5.0625 4.875 C5.07410156 5.77992187 5.08570312 6.68484375 5.09765625 7.6171875 C5 10 5 10 4 12 C4.66 12 5.32 12 6 12 C6 17.61 6 23.22 6 29 C4.02 29 2.04 29 0 29 C0 19.43 0 9.86 0 0 Z " fill="#5EC2A5" transform="translate(64,66)"/>
<path d="M0 0 C3.5625 0.25 3.5625 0.25 7 1 C8.52491998 4.04983996 8.23562548 6.6423369 8 10 C6.8125 11.9375 6.8125 11.9375 5 13 C2.5 13.4375 2.5 13.4375 0 13 C-1.875 11.4375 -1.875 11.4375 -3 9 C-2.67272727 2.67272727 -2.67272727 2.67272727 0 0 Z " fill="#151515" transform="translate(115,108)"/>
<path d="M0 0 C1.2375 0.1546875 1.2375 0.1546875 2.5 0.3125 C4.99118953 4.0492843 4.7065226 6.05701819 4.625 10.5 C4.60695312 11.77230469 4.58890625 13.04460937 4.5703125 14.35546875 C4.53550781 15.81919922 4.53550781 15.81919922 4.5 17.3125 C3.84 16.9825 3.18 16.6525 2.5 16.3125 C1.875 13.75 1.875 13.75 1.5 11.3125 C0.18 11.3125 -1.14 11.3125 -2.5 11.3125 C-2.83 13.6225 -3.16 15.9325 -3.5 18.3125 C-5.48 18.3125 -7.46 18.3125 -9.5 18.3125 C-9.5 17.9825 -9.5 17.6525 -9.5 17.3125 C-7.85 17.3125 -6.2 17.3125 -4.5 17.3125 C-4.52320313 16.25289062 -4.54640625 15.19328125 -4.5703125 14.1015625 C-4.58906944 12.7135487 -4.60726972 11.3255273 -4.625 9.9375 C-4.64175781 9.23882812 -4.65851563 8.54015625 -4.67578125 7.8203125 C-4.69344267 5.98352514 -4.60303261 4.14648037 -4.5 2.3125 C-2.5 0.3125 -2.5 0.3125 0 0 Z " fill="#0B1F1A" transform="translate(136.5,77.6875)"/>
<path d="M0 0 C1.65 0 3.3 0 5 0 C5 6.93 5 13.86 5 21 C3.35 21 1.7 21 0 21 C0 14.07 0 7.14 0 0 Z " fill="#F2F2F2" transform="translate(98,104)"/>
<path d="M0 0 C1.65 0 3.3 0 5 0 C5 6.93 5 13.86 5 21 C3.35 21 1.7 21 0 21 C0 14.07 0 7.14 0 0 Z " fill="#EDEDED" transform="translate(68,104)"/>
<path d="M0 0 C1.65 0 3.3 0 5 0 C5 6.93 5 13.86 5 21 C3.35 21 1.7 21 0 21 C0 14.07 0 7.14 0 0 Z " fill="#63C4A7" transform="translate(102,74)"/>
<path d="M0 0 C0.28875 0.61875 0.5775 1.2375 0.875 1.875 C2.81782266 5.54477613 4.80149891 6.42332823 8.625 7.625 C9.85089844 8.01558594 9.85089844 8.01558594 11.1015625 8.4140625 C11.72804688 8.60742188 12.35453125 8.80078125 13 9 C13 9.99 13 10.98 13 12 C9.4588979 12.08047959 6.40590348 11.97311528 3 11 C2.34 11 1.68 11 1 11 C1 11.66 1 12.32 1 13 C-0.98 13.99 -0.98 13.99 -3 15 C-3 11.04 -3 7.08 -3 3 C-2.01 2.67 -1.02 2.34 0 2 C0 1.34 0 0.68 0 0 Z " fill="#0E0E0E" transform="translate(76,109)"/>
<path d="M0 0 C0.33 0.99 0.66 1.98 1 3 C0.319375 3.515625 -0.36125 4.03125 -1.0625 4.5625 C-3.38788255 6.94645155 -3.38788255 6.94645155 -2.875 10.5625 C-2.17969518 14.09045845 -2.17969518 14.09045845 0 17 C-0.99 17.66 -1.98 18.32 -3 19 C-3 18.34 -3 17.68 -3 17 C-3.99 17.33 -4.98 17.66 -6 18 C-8.67904831 15.43257871 -9.34935022 13.15793191 -9.625 9.5625 C-9.54979662 6.71417216 -9.4048111 5.45752087 -7.5 3.3046875 C-2.96785714 0 -2.96785714 0 0 0 Z M1 1 C3 2 3 2 3 2 Z " fill="#EFEFEF" transform="translate(116,105)"/>
<path d="M0 0 C1.98 0 3.96 0 6 0 C6.34933594 0.91523437 6.69867188 1.83046875 7.05859375 2.7734375 C7.51363281 3.96195312 7.96867187 5.15046875 8.4375 6.375 C9.11619141 8.15003906 9.11619141 8.15003906 9.80859375 9.9609375 C10.89271912 12.86036193 10.89271912 12.86036193 12 15 C11.01 15 10.02 15 9 15 C8.67 15.99 8.34 16.98 8 18 C7.34 18 6.68 18 6 18 C4.99600476 15.37646482 3.99665555 12.75132205 3 10.125 C2.57074219 9.00544922 2.57074219 9.00544922 2.1328125 7.86328125 C0 2.2265625 0 2.2265625 0 0 Z " fill="#E5E5E5" transform="translate(43,104)"/>
<path d="M0 0 C0.33 4.95 0.66 9.9 1 15 C3.475 15.99 3.475 15.99 6 17 C5.67 17.99 5.34 18.98 5 20 C1.26512223 19.5020163 -0.81237635 19.12508244 -4 17 C-4.22107787 14.2114711 -4.28107535 11.65346819 -4.1875 8.875 C-4.17396484 8.12089844 -4.16042969 7.36679688 -4.14648438 6.58984375 C-4.11109985 4.72625873 -4.05729167 2.86304022 -4 1 C-1 0 -1 0 0 0 Z " fill="#5DC3A5" transform="translate(93,74)"/>
<path d="M0 0 C4.62 0 9.24 0 14 0 C14 0.33 14 0.66 14 1 C12.02 1 10.04 1 8 1 C8.08378906 2.27617188 8.16757813 3.55234375 8.25390625 4.8671875 C8.35706232 6.53644035 8.45991099 8.20571221 8.5625 9.875 C8.61857422 10.71675781 8.67464844 11.55851562 8.73242188 12.42578125 C8.78076172 13.23144531 8.82910156 14.03710938 8.87890625 14.8671875 C8.9260376 15.61081543 8.97316895 16.35444336 9.02172852 17.12060547 C9 19 9 19 8 21 C7.01 21 6.02 21 5 21 C4.96132812 19.35451172 4.96132812 19.35451172 4.921875 17.67578125 C4.8655731 16.22131552 4.80822623 14.76688997 4.75 13.3125 C4.73582031 12.59126953 4.72164063 11.87003906 4.70703125 11.12695312 C4.67480469 10.42119141 4.64257812 9.71542969 4.609375 8.98828125 C4.58842773 8.34415283 4.56748047 7.70002441 4.54589844 7.03637695 C3.9431773 4.24358959 3.9431773 4.24358959 0 0 Z " fill="#02130E" transform="translate(79,73)"/>
<path d="M0 0 C0.99 0.33 1.98 0.66 3 1 C3 6.28 3 11.56 3 17 C1.35 17 -0.3 17 -2 17 C-2.05418326 14.91695462 -2.09287551 12.83350232 -2.125 10.75 C-2.14820313 9.58984375 -2.17140625 8.4296875 -2.1953125 7.234375 C-2.0103949 4.17213954 -1.60823023 2.55797249 0 0 Z " fill="#E6E6E6" transform="translate(149,108)"/>
<path d="M0 0 C2 2.0625 2 2.0625 3 4 C2 5 2 5 -0.07421875 5.02734375 C-0.93660156 4.99769531 -1.79898438 4.96804687 -2.6875 4.9375 C-6.86231761 4.88359274 -10.10531281 5.36013171 -14 7 C-13.73495227 3.73107795 -13.40216549 2.36560499 -10.9375 0.125 C-6.72184935 -1.48950451 -4.39980082 -1.06446794 0 0 Z " fill="#E2E2E2" transform="translate(91,104)"/>
<path d="M0 0 C1.32 0 2.64 0 4 0 C4 6.27 4 12.54 4 19 C3.67 19 3.34 19 3 19 C2.67 16.69 2.34 14.38 2 12 C1.93941406 12.71027344 1.87882812 13.42054687 1.81640625 14.15234375 C1.69072266 15.53099609 1.69072266 15.53099609 1.5625 16.9375 C1.48128906 17.85402344 1.40007812 18.77054688 1.31640625 19.71484375 C1 22 1 22 0 23 C-1.66617115 23.04063832 -3.33388095 23.042721 -5 23 C-5 22.34 -5 21.68 -5 21 C-3.35 21 -1.7 21 0 21 C0 14.07 0 7.14 0 0 Z " fill="#00170F" transform="translate(107,74)"/>
<path d="M0 0 C0.33 0.66 0.66 1.32 1 2 C4.02934491 2.65772428 4.02934491 2.65772428 7 3 C6.67 3.99 6.34 4.98 6 6 C4.35 6.33 2.7 6.66 1 7 C1 7.66 1 8.32 1 9 C-0.65614657 9.38218767 -2.32457024 9.71395102 -4 10 C-5 9 -5 9 -5.25 5.5625 C-5.1675 4.386875 -5.085 3.21125 -5 2 C-2 0 -2 0 0 0 Z " fill="#0B0A0B" transform="translate(53,80)"/>
<path d="M0 0 C1.67542976 0.28604898 3.34385343 0.61781233 5 1 C3.60478153 4.37177797 2.23717239 6.25017709 -1 8 C-4.4375 8.5 -4.4375 8.5 -8 8 C-10.9375 5.5 -10.9375 5.5 -13 3 C-11.8553125 3.495 -11.8553125 3.495 -10.6875 4 C-8.00930865 5.17436686 -8.00930865 5.17436686 -5 5 C-5.33 4.34 -5.66 3.68 -6 3 C-5.195625 2.690625 -4.39125 2.38125 -3.5625 2.0625 C-1.10919595 1.23664655 -1.10919595 1.23664655 0 0 Z " fill="#5FB69C" transform="translate(56,88)"/>
<path d="M0 0 C3 1 3 1 4 3 C4.07116382 5.37402501 4.08409085 7.75000677 4.0625 10.125 C4.05347656 11.40632813 4.04445313 12.68765625 4.03515625 14.0078125 C4.02355469 14.99523437 4.01195313 15.98265625 4 17 C2.68 17 1.36 17 0 17 C0 11.39 0 5.78 0 0 Z " fill="#5BC6A7" transform="translate(79,78)"/>
<path d="M0 0 C0 1.98 0 3.96 0 6 C-1.2065625 6.4640625 -1.2065625 6.4640625 -2.4375 6.9375 C-4.89080405 7.76335345 -4.89080405 7.76335345 -6 9 C-6.23481693 11.18292774 -6.41363323 13.37203174 -6.5625 15.5625 C-6.64628906 16.76003906 -6.73007813 17.95757812 -6.81640625 19.19140625 C-6.87699219 20.11824219 -6.93757813 21.04507813 -7 22 C-7.33 22 -7.66 22 -8 22 C-8.16798051 19.72926348 -8.33434113 17.45840707 -8.5 15.1875 C-8.5928125 13.92292969 -8.685625 12.65835938 -8.78125 11.35546875 C-8.91914781 9.24021483 -9 7.11974408 -9 5 C-3.76744186 0 -3.76744186 0 0 0 Z " fill="#5FB49B" transform="translate(124,73)"/>
<path d="M0 0 C0.99 0 1.98 0 3 0 C3 6.93 3 13.86 3 21 C2.34 20.67 1.68 20.34 1 20 C0.5859375 17.05859375 0.5859375 17.05859375 0.375 13.4375 C0.30023438 12.23996094 0.22546875 11.04242188 0.1484375 9.80859375 C0.09945312 8.88175781 0.05046875 7.95492187 0 7 C-1.98 7.33 -3.96 7.66 -6 8 C-5.34 7.01 -4.68 6.02 -4 5 C-2.68 5 -1.36 5 0 5 C0 3.35 0 1.7 0 0 Z " fill="#0A2A21" transform="translate(124,74)"/>
<path d="M0 0 C0.33 3.63 0.66 7.26 1 11 C-3 12 -3 12 -5 12 C-5.08090971 10.37581255 -5.13914995 8.75048255 -5.1875 7.125 C-5.22230469 6.22007813 -5.25710937 5.31515625 -5.29296875 4.3828125 C-5.19628906 3.59648438 -5.09960938 2.81015625 -5 2 C-2 0 -2 0 0 0 Z " fill="#090A0A" transform="translate(76,79)"/>
<path d="M0 0 C1.36511719 0.29197266 1.36511719 0.29197266 2.7578125 0.58984375 C3.45648438 0.74582031 4.15515625 0.90179688 4.875 1.0625 C4.875 2.7125 4.875 4.3625 4.875 6.0625 C0.71283725 6.38894414 -1.48813462 6.46900982 -5.0625 4.1875 C-7.125 2.0625 -7.125 2.0625 -7.125 0.0625 C-4.4030754 -1.2984623 -2.9418043 -0.64116248 0 0 Z " fill="#DADADA" transform="translate(84.125,119.9375)"/>
<path d="M0 0 C1.65 0 3.3 0 5 0 C4.27991594 4.60853797 2.68704061 8.67237409 1 13 C0.34 13 -0.32 13 -1 13 C-1 12.01 -1 11.02 -1 10 C-1.66 9.67 -2.32 9.34 -3 9 C-2.01 6.03 -1.02 3.06 0 0 Z " fill="#E6E6E6" transform="translate(59,104)"/>
<path d="M0 0 C0.66 0 1.32 0 2 0 C2 0.66 2 1.32 2 2 C2.66 2 3.32 2 4 2 C4 2.99 4 3.98 4 5 C3.34 5 2.68 5 2 5 C2 8.96 2 12.92 2 17 C1.01 17 0.02 17 -1 17 C-1.02691685 14.54159395 -1.04679802 12.08348118 -1.0625 9.625 C-1.07087891 8.92632812 -1.07925781 8.22765625 -1.08789062 7.5078125 C-1.11328125 2.2265625 -1.11328125 2.2265625 0 0 Z " fill="#58C8A8" transform="translate(66,76)"/>
<path d="M0 0 C0.33 0 0.66 0 1 0 C1 1.65 1 3.3 1 5 C1.99 5 2.98 5 4 5 C4.33 8.96 4.66 12.92 5 17 C3.68 16.34 2.36 15.68 1 15 C1 16.98 1 18.96 1 21 C0.67 21 0.34 21 0 21 C0 14.07 0 7.14 0 0 Z " fill="#323232" transform="translate(103,104)"/>
<path d="M0 0 C0.33 0 0.66 0 1 0 C1 4.62 1 9.24 1 14 C1.99 14 2.98 14 4 14 C4 10.04 4 6.08 4 2 C4.66 2 5.32 2 6 2 C6 6.62 6 11.24 6 16 C4.02 16 2.04 16 0 16 C0 10.72 0 5.44 0 0 Z " fill="#56A58F" transform="translate(64,79)"/>
<path d="M0 0 C3.63 0 7.26 0 11 0 C11.66 1.65 12.32 3.3 13 5 C10.625 5.625 10.625 5.625 8 6 C7.34 5.34 6.68 4.68 6 4 C3.68234271 3.28072705 1.34904126 2.6090107 -1 2 C-0.67 1.34 -0.34 0.68 0 0 Z " fill="#5AC7A7" transform="translate(48,75)"/>
<path d="M0 0 C1.32 0 2.64 0 4 0 C3.67 1.65 3.34 3.3 3 5 C3.33 5 3.66 5 4 5 C4.125 7.875 4.125 7.875 4 11 C3.34 11.66 2.68 12.32 2 13 C0.18884044 11.18884044 0.61800552 8.38721773 0.4375 5.9375 C0.35371094 4.83277344 0.26992187 3.72804688 0.18359375 2.58984375 C0.09271484 1.30787109 0.09271484 1.30787109 0 0 Z " fill="#57C7A6" transform="translate(112,75)"/>
<path d="M0 0 C0.33 0 0.66 0 1 0 C1.33 5.94 1.66 11.88 2 18 C0.35 18.99 -1.3 19.98 -3 21 C-2.125 16.125 -2.125 16.125 -1 15 C-0.76346477 12.47403741 -0.57826308 9.96892793 -0.4375 7.4375 C-0.39431641 6.72658203 -0.35113281 6.01566406 -0.30664062 5.28320312 C-0.20028223 3.52238088 -0.09961154 1.7612168 0 0 Z " fill="#55A28C" transform="translate(101,74)"/>
<path d="M0 0 C2.0625 0.4375 2.0625 0.4375 4 1 C3.68289062 1.52078125 3.36578125 2.0415625 3.0390625 2.578125 C1.71079489 5.67408709 1.57635753 8.39404121 1.375 11.75 C1.30023438 12.92046875 1.22546875 14.0909375 1.1484375 15.296875 C1.09945312 16.18890625 1.05046875 17.0809375 1 18 C0.67 18 0.34 18 0 18 C-0.16798051 15.72926348 -0.33434113 13.45840707 -0.5 11.1875 C-0.5928125 9.92292969 -0.685625 8.65835938 -0.78125 7.35546875 C-0.91914781 5.24021483 -1 3.11974408 -1 1 C-0.67 0.67 -0.34 0.34 0 0 Z " fill="#4F9F87" transform="translate(116,77)"/>
<path d="M0 0 C2.97 0.495 2.97 0.495 6 1 C6.33 2.32 6.66 3.64 7 5 C5.02 5 3.04 5 1 5 C0.67 3.35 0.34 1.7 0 0 Z " fill="#212121" transform="translate(82,116)"/>
<path d="M0 0 C2.64 0.33 5.28 0.66 8 1 C6.3125 2.5625 6.3125 2.5625 4 4 C1.25 3.6875 1.25 3.6875 -1 3 C-0.67 2.01 -0.34 1.02 0 0 Z " fill="#232323" transform="translate(83,108)"/>
<path d="M0 0 C2.125 0.9375 2.125 0.9375 4 2 C3.67 2.66 3.34 3.32 3 4 C0.03 3.67 -2.94 3.34 -6 3 C-4 2 -2 1 0 0 Z " fill="#D5D5D5" transform="translate(90,105)"/>
<path d="M0 0 C1.5 1.375 1.5 1.375 3 3 C3 3.66 3 4.32 3 5 C1.35 5.33 -0.3 5.66 -2 6 C-2.66 4.68 -3.32 3.36 -4 2 C-1.525 2.99 -1.525 2.99 1 4 C0.67 2.68 0.34 1.36 0 0 Z " fill="#62B59C" transform="translate(58,75)"/>
<path d="M0 0 C0.598125 0.226875 1.19625 0.45375 1.8125 0.6875 C0.6059375 1.244375 0.6059375 1.244375 -0.625 1.8125 C-3.49922896 3.4984337 -3.49922896 3.4984337 -4 6.875 C-4.061875 7.803125 -4.12375 8.73125 -4.1875 9.6875 C-4.5175 9.6875 -4.8475 9.6875 -5.1875 9.6875 C-5.5508218 3.26881488 -5.5508218 3.26881488 -3.9375 0.6875 C-2.1875 -0.3125 -2.1875 -0.3125 0 0 Z " fill="#062921" transform="translate(52.1875,78.3125)"/>
<path d="M0 0 C2.64 0.33 5.28 0.66 8 1 C7.67 1.66 7.34 2.32 7 3 C4.69 2.67 2.38 2.34 0 2 C0 1.34 0 0.68 0 0 Z " fill="#5CB199" transform="translate(90,93)"/>
</svg>
